<svg xmlns="http://www.w3.org/2000/svg" width="760" height="460" viewBox="0 0 760 460">
<rect x="0" y="0" width="100%" height="100%" fill="white"/>
<text x="380.0" y="28" text-anchor="middle" font-family="sans-serif" font-size="18" font-weight="bold">LEO availability outcomes vs Hop-count</text>
<text x="380.0" y="49" text-anchor="middle" font-family="sans-serif" font-size="11">Primary static, no interference; negative means fewer adverse outcomes</text>
<line x1="100" y1="65" x2="100" y2="375" stroke="black"/>
<line x1="100" y1="375" x2="720" y2="375" stroke="black"/>
<line x1="95" y1="375.00" x2="720" y2="375.00" stroke="black" stroke-opacity="0.15"/>
<text x="91" y="379.00" text-anchor="end" font-family="sans-serif" font-size="10">-39.0</text>
<line x1="95" y1="313.00" x2="720" y2="313.00" stroke="black" stroke-opacity="0.15"/>
<text x="91" y="317.00" text-anchor="end" font-family="sans-serif" font-size="10">-30.4</text>
<line x1="95" y1="251.00" x2="720" y2="251.00" stroke="black" stroke-opacity="0.15"/>
<text x="91" y="255.00" text-anchor="end" font-family="sans-serif" font-size="10">-21.7</text>
<line x1="95" y1="189.00" x2="720" y2="189.00" stroke="black" stroke-opacity="0.15"/>
<text x="91" y="193.00" text-anchor="end" font-family="sans-serif" font-size="10">-13.1</text>
<line x1="95" y1="127.00" x2="720" y2="127.00" stroke="black" stroke-opacity="0.15"/>
<text x="91" y="131.00" text-anchor="end" font-family="sans-serif" font-size="10">-4.5</text>
<line x1="95" y1="65.00" x2="720" y2="65.00" stroke="black" stroke-opacity="0.15"/>
<text x="91" y="69.00" text-anchor="end" font-family="sans-serif" font-size="10">4.2</text>
<line x1="100" y1="95.00" x2="720" y2="95.00" stroke="black" stroke-width="1.4"/>
<text x="203.33" y="398" text-anchor="middle" font-family="sans-serif" font-size="11">1</text>
<text x="410.00" y="398" text-anchor="middle" font-family="sans-serif" font-size="11">2</text>
<text x="616.67" y="398" text-anchor="middle" font-family="sans-serif" font-size="11">3</text>
<text x="24" y="220.0" transform="rotate(-90 24 220.0)" text-anchor="middle" font-family="sans-serif" font-size="12">LEO minus Hop-count (%)</text>
<line x1="194.33" y1="317.33" x2="194.33" y2="155.95" stroke="black"/>
<line x1="190.33" y1="317.33" x2="198.33" y2="317.33" stroke="black"/>
<line x1="190.33" y1="155.95" x2="198.33" y2="155.95" stroke="black"/>
<circle cx="194.33" cy="227.66" r="4" fill="white" stroke="black" stroke-width="1.5"/>
<line x1="401.00" y1="341.70" x2="401.00" y2="169.15" stroke="black"/>
<line x1="397.00" y1="341.70" x2="405.00" y2="341.70" stroke="black"/>
<line x1="397.00" y1="169.15" x2="405.00" y2="169.15" stroke="black"/>
<circle cx="401.00" cy="246.55" r="4" fill="white" stroke="black" stroke-width="1.5"/>
<line x1="607.67" y1="345.00" x2="607.67" y2="172.92" stroke="black"/>
<line x1="603.67" y1="345.00" x2="611.67" y2="345.00" stroke="black"/>
<line x1="603.67" y1="172.92" x2="611.67" y2="172.92" stroke="black"/>
<circle cx="607.67" cy="250.44" r="4" fill="white" stroke="black" stroke-width="1.5"/>
<polyline points="194.33,227.66 401.00,246.55 607.67,250.44" fill="none" stroke="black" stroke-width="1.3"/>
<line x1="212.33" y1="172.51" x2="212.33" y2="108.59" stroke="black"/>
<line x1="208.33" y1="172.51" x2="216.33" y2="172.51" stroke="black"/>
<line x1="208.33" y1="108.59" x2="216.33" y2="108.59" stroke="black"/>
<rect x="208.33" y="133.14" width="8" height="8" fill="white" stroke="black" stroke-width="1.5"/>
<line x1="419.00" y1="235.13" x2="419.00" y2="140.18" stroke="black"/>
<line x1="415.00" y1="235.13" x2="423.00" y2="235.13" stroke="black"/>
<line x1="415.00" y1="140.18" x2="423.00" y2="140.18" stroke="black"/>
<rect x="415.00" y="179.79" width="8" height="8" fill="white" stroke="black" stroke-width="1.5"/>
<line x1="625.67" y1="234.28" x2="625.67" y2="140.01" stroke="black"/>
<line x1="621.67" y1="234.28" x2="629.67" y2="234.28" stroke="black"/>
<line x1="621.67" y1="140.01" x2="629.67" y2="140.01" stroke="black"/>
<rect x="621.67" y="179.10" width="8" height="8" fill="white" stroke="black" stroke-width="1.5"/>
<polyline points="212.33,137.14 419.00,183.79 625.67,183.10" fill="none" stroke="black" stroke-width="1.3" stroke-dasharray="6,3"/>
<line x1="535" y1="73" x2="560" y2="73" stroke="black"/>
<text x="567" y="77" font-family="sans-serif" font-size="10">Ping timeouts</text>
<line x1="535" y1="92" x2="560" y2="92" stroke="black" stroke-dasharray="6,3"/>
<text x="567" y="96" font-family="sans-serif" font-size="10">No route</text>
</svg>
