<svg xmlns="http://www.w3.org/2000/svg" width="760" height="460" viewBox="0 0 760 460">
<rect x="0" y="0" width="100%" height="100%" fill="white"/>
<text x="380.0" y="28" text-anchor="middle" font-family="sans-serif" font-size="18" font-weight="bold">nRF52840 accounting changes energy scale</text>
<text x="380.0" y="49" text-anchor="middle" font-family="sans-serif" font-size="11">Routing is unchanged; ratio is nRF current-table energy / simplified proxy</text>
<line x1="100" y1="65" x2="100" y2="375" stroke="black"/>
<line x1="100" y1="375" x2="720" y2="375" stroke="black"/>
<line x1="95" y1="375.00" x2="720" y2="375.00" stroke="black" stroke-opacity="0.15"/>
<text x="91" y="379.00" text-anchor="end" font-family="sans-serif" font-size="10">9.5</text>
<line x1="95" y1="313.00" x2="720" y2="313.00" stroke="black" stroke-opacity="0.15"/>
<text x="91" y="317.00" text-anchor="end" font-family="sans-serif" font-size="10">10.5</text>
<line x1="95" y1="251.00" x2="720" y2="251.00" stroke="black" stroke-opacity="0.15"/>
<text x="91" y="255.00" text-anchor="end" font-family="sans-serif" font-size="10">11.5</text>
<line x1="95" y1="189.00" x2="720" y2="189.00" stroke="black" stroke-opacity="0.15"/>
<text x="91" y="193.00" text-anchor="end" font-family="sans-serif" font-size="10">12.5</text>
<line x1="95" y1="127.00" x2="720" y2="127.00" stroke="black" stroke-opacity="0.15"/>
<text x="91" y="131.00" text-anchor="end" font-family="sans-serif" font-size="10">13.5</text>
<line x1="95" y1="65.00" x2="720" y2="65.00" stroke="black" stroke-opacity="0.15"/>
<text x="91" y="69.00" text-anchor="end" font-family="sans-serif" font-size="10">14.5</text>
<text x="203.33" y="398" text-anchor="middle" font-family="sans-serif" font-size="11">1</text>
<text x="410.00" y="398" text-anchor="middle" font-family="sans-serif" font-size="11">2</text>
<text x="616.67" y="398" text-anchor="middle" font-family="sans-serif" font-size="11">3</text>
<text x="24" y="220.0" transform="rotate(-90 24 220.0)" text-anchor="middle" font-family="sans-serif" font-size="12">Energy ratio (×)</text>
<circle cx="194.33" cy="201.21" r="4" fill="white" stroke="black" stroke-width="1.5"/>
<circle cx="401.00" cy="201.21" r="4" fill="white" stroke="black" stroke-width="1.5"/>
<circle cx="607.67" cy="201.21" r="4" fill="white" stroke="black" stroke-width="1.5"/>
<polyline points="194.33,201.21 401.00,201.21 607.67,201.21" fill="none" stroke="black" stroke-width="1.3"/>
<rect x="208.33" y="204.15" width="8" height="8" fill="white" stroke="black" stroke-width="1.5"/>
<rect x="415.00" y="207.81" width="8" height="8" fill="white" stroke="black" stroke-width="1.5"/>
<rect x="621.67" y="208.04" width="8" height="8" fill="white" stroke="black" stroke-width="1.5"/>
<polyline points="212.33,208.15 419.00,211.81 625.67,212.04" fill="none" stroke="black" stroke-width="1.3" stroke-dasharray="6,3"/>
<line x1="535" y1="73" x2="560" y2="73" stroke="black"/>
<text x="567" y="77" font-family="sans-serif" font-size="10">Hop-count</text>
<line x1="535" y1="92" x2="560" y2="92" stroke="black" stroke-dasharray="6,3"/>
<text x="567" y="96" font-family="sans-serif" font-size="10">LEO</text>
</svg>
